<svg width="39" height="15" viewBox="0 0 39 15" fill="none" xmlns="http://www.w3.org/2000/svg">
<path d="M3.12 8.808C2.64 8.808 2.22 8.748 1.86 8.628C1.26 8.628 0.828 8.388 0.564 7.908C0.444 7.764 0.384 7.608 0.384 7.44C0.384 7.032 1.056 6.756 2.4 6.612C3.912 6.276 5.592 6.108 7.44 6.108C8.592 6.108 9.432 6.36 9.96 6.864C10.176 7.08 10.284 7.332 10.284 7.62C10.284 7.884 10.164 8.1 9.924 8.268C9.708 8.436 9.432 8.496 9.096 8.448L6.576 8.628C6.456 8.628 6.036 8.664 5.316 8.736C4.596 8.784 3.864 8.808 3.12 8.808ZM14.8622 8.808C14.3822 8.808 13.9622 8.748 13.6022 8.628C13.0022 8.628 12.5702 8.388 12.3062 7.908C12.1862 7.764 12.1262 7.608 12.1262 7.44C12.1262 7.032 12.7982 6.756 14.1422 6.612C15.6542 6.276 17.3342 6.108 19.1822 6.108C20.3342 6.108 21.1742 6.36 21.7022 6.864C21.9182 7.08 22.0262 7.332 22.0262 7.62C22.0262 7.884 21.9062 8.1 21.6662 8.268C21.4502 8.436 21.1742 8.496 20.8382 8.448L18.3182 8.628C18.1982 8.628 17.7782 8.664 17.0582 8.736C16.3382 8.784 15.6062 8.808 14.8622 8.808ZM27.6124 14.28C27.4684 14.328 27.2284 14.22 26.8924 13.956C26.5804 13.692 26.3884 13.536 26.3164 13.488C26.1964 13.392 26.0644 13.308 25.9204 13.236C25.7764 13.14 25.6804 13.068 25.6324 13.02C25.5844 12.948 25.5484 12.852 25.5244 12.732C25.5244 12.66 25.5604 12.528 25.6324 12.336C25.7044 12.144 25.8124 11.988 25.9564 11.868C26.2924 11.58 27.0604 11.124 28.2604 10.5C29.8684 9.66 31.1044 8.976 31.9684 8.448C32.3764 8.208 32.8444 7.956 33.3724 7.692C33.7084 7.5 33.9244 7.368 34.0204 7.296C34.1404 7.2 34.2004 7.056 34.2004 6.864L34.1644 6.576C33.7324 6.072 33.0364 5.58 32.0764 5.1C31.1404 4.596 29.8084 4.08 28.0804 3.552C26.9524 3.192 26.1724 2.844 25.7404 2.508C25.3084 2.172 25.0924 1.8 25.0924 1.392L25.1284 1.104C25.2484 0.911999 25.5364 0.743999 25.9924 0.6C26.4484 0.455999 26.9404 0.383999 27.4684 0.383999C28.2124 0.383999 28.8364 0.503999 29.3404 0.743999C29.5804 0.816 29.9644 0.924 30.4924 1.068C31.0204 1.188 31.4884 1.344 31.8964 1.536C32.3044 1.728 32.7124 1.98 33.1204 2.292C33.2644 2.388 33.4804 2.508 33.7684 2.652C34.4884 3.06 35.0284 3.408 35.3884 3.696C35.7724 3.984 36.1444 4.38 36.5044 4.884L37.6924 6.324L38.0884 8.232C37.8724 8.28 37.6804 8.352 37.5124 8.448C37.3444 8.544 37.2484 8.592 37.2244 8.592C36.9844 8.712 36.6124 8.94 36.1084 9.276C35.1004 9.948 34.0684 10.584 33.0124 11.184C30.5404 12.456 29.0524 13.344 28.5484 13.848C28.4284 13.992 28.2724 14.1 28.0804 14.172C27.9124 14.244 27.7564 14.28 27.6124 14.28Z" fill="#204051"/>
</svg>
